<mxfile host="app.diagrams.net" modified="2023-10-06T12:31:43.194Z" agent="Mozilla/5.0 (Windows NT 10.0; Win64; x64) AppleWebKit/537.36 (KHTML, like Gecko) Chrome/117.0.0.0 Safari/537.36 Edg/117.0.2045.47" etag="BXcG2ak09vHLrAbGYvI0" version="22.0.3" type="device">
  <diagram name="Page-1" id="-AF1Tq4smPEbZoSg2KQT">
    <mxGraphModel dx="339" dy="626" grid="1" gridSize="10" guides="1" tooltips="1" connect="1" arrows="1" fold="1" page="1" pageScale="1" pageWidth="850" pageHeight="1100" math="0" shadow="0">
      <root>
        <mxCell id="0" />
        <mxCell id="1" parent="0" />
        <mxCell id="PISk024J-HBkNfMFhdv4-11" style="edgeStyle=orthogonalEdgeStyle;rounded=0;orthogonalLoop=1;jettySize=auto;html=1;exitX=0.75;exitY=1;exitDx=0;exitDy=0;" edge="1" parent="1" source="PISk024J-HBkNfMFhdv4-1" target="PISk024J-HBkNfMFhdv4-3">
          <mxGeometry relative="1" as="geometry" />
        </mxCell>
        <mxCell id="PISk024J-HBkNfMFhdv4-1" value="&lt;font size=&quot;3&quot;&gt;main&lt;/font&gt;" style="rounded=0;whiteSpace=wrap;html=1;" vertex="1" parent="1">
          <mxGeometry x="350" y="100" width="120" height="60" as="geometry" />
        </mxCell>
        <mxCell id="PISk024J-HBkNfMFhdv4-2" value="Title" style="rounded=0;whiteSpace=wrap;html=1;" vertex="1" parent="1">
          <mxGeometry x="220" y="210" width="120" height="60" as="geometry" />
        </mxCell>
        <mxCell id="PISk024J-HBkNfMFhdv4-9" style="edgeStyle=orthogonalEdgeStyle;rounded=0;orthogonalLoop=1;jettySize=auto;html=1;entryX=0.5;entryY=0;entryDx=0;entryDy=0;exitX=0.75;exitY=1;exitDx=0;exitDy=0;" edge="1" parent="1" source="PISk024J-HBkNfMFhdv4-3" target="PISk024J-HBkNfMFhdv4-5">
          <mxGeometry relative="1" as="geometry">
            <mxPoint x="500" y="300" as="sourcePoint" />
          </mxGeometry>
        </mxCell>
        <mxCell id="PISk024J-HBkNfMFhdv4-10" style="edgeStyle=orthogonalEdgeStyle;rounded=0;orthogonalLoop=1;jettySize=auto;html=1;exitX=0.5;exitY=1;exitDx=0;exitDy=0;entryX=0.5;entryY=0;entryDx=0;entryDy=0;" edge="1" parent="1" source="PISk024J-HBkNfMFhdv4-3" target="PISk024J-HBkNfMFhdv4-4">
          <mxGeometry relative="1" as="geometry" />
        </mxCell>
        <mxCell id="PISk024J-HBkNfMFhdv4-3" value="avg" style="rounded=0;whiteSpace=wrap;html=1;" vertex="1" parent="1">
          <mxGeometry x="410" y="210" width="120" height="60" as="geometry" />
        </mxCell>
        <mxCell id="PISk024J-HBkNfMFhdv4-4" value="atbats" style="rounded=0;whiteSpace=wrap;html=1;" vertex="1" parent="1">
          <mxGeometry x="320" y="330" width="120" height="40" as="geometry" />
        </mxCell>
        <mxCell id="PISk024J-HBkNfMFhdv4-5" value="num_hits" style="rounded=0;whiteSpace=wrap;html=1;" vertex="1" parent="1">
          <mxGeometry x="530" y="330" width="110" height="40" as="geometry" />
        </mxCell>
        <mxCell id="PISk024J-HBkNfMFhdv4-12" style="edgeStyle=orthogonalEdgeStyle;rounded=0;orthogonalLoop=1;jettySize=auto;html=1;exitX=0.25;exitY=1;exitDx=0;exitDy=0;entryX=0.564;entryY=-0.027;entryDx=0;entryDy=0;entryPerimeter=0;" edge="1" parent="1" source="PISk024J-HBkNfMFhdv4-1" target="PISk024J-HBkNfMFhdv4-2">
          <mxGeometry relative="1" as="geometry" />
        </mxCell>
      </root>
    </mxGraphModel>
  </diagram>
</mxfile>
